<svg width="24" height="46" viewBox="0 0 24 46" fill="none" xmlns="http://www.w3.org/2000/svg">
<path d="M15.8279 0.0909424C20.1859 0.0909424 23.7925 1.62059 26.9482 4.81888C28.451 6.20944 29.5029 8.01715 30.4045 10.103C31.3062 12.1888 31.757 14.2747 31.757 16.3605C31.757 20.8103 30.2543 25.2601 27.0985 29.7099C23.9427 34.2987 19.8853 38.0532 14.6257 41.2515C10.2678 43.8936 6.81148 45.2841 4.25681 45.2841C3.20489 45.2841 2.45353 45.006 1.70215 44.4498C1.10106 43.8936 0.650238 43.1983 0.650238 42.2249C0.650238 40.8344 1.55187 39.7219 3.50544 38.7485C8.01367 36.5236 11.47 34.4378 13.5738 32.2129C15.5274 30.2661 16.5793 28.7365 16.5793 27.7631C16.5793 26.9288 15.8279 26.3725 14.3252 26.0944L13.2733 25.9554H12.0711C8.76504 25.5382 6.21037 24.1476 4.10653 21.7837C2.00269 19.4197 1.10104 16.6386 1.10104 13.3013C1.10104 9.82486 2.30324 6.90469 4.8579 4.40169C7.71311 1.48151 11.3197 0.0909424 15.8279 0.0909424Z" fill="#3B3C4B"/>
</svg>
