<svg width="13" height="13" viewBox="0 0 13 13" fill="none" xmlns="http://www.w3.org/2000/svg">
<rect x="0.5" y="0.5" width="12" height="12" rx="1.5" stroke="#656D78"/>
<g clip-path="url(#clip0_83_4432)">
<path d="M2.26669 6.83335C2.20002 6.76669 2.16669 6.66669 2.16669 6.60002C2.16669 6.53335 2.20002 6.43335 2.26669 6.36669L2.73335 5.90002C2.86669 5.76669 3.06669 5.76669 3.20002 5.90002L3.23335 5.93335L5.06669 7.90002C5.13335 7.96669 5.23335 7.96669 5.30002 7.90002L9.76669 3.26669H9.80002V3.26669C9.93335 3.13335 10.1334 3.13335 10.2667 3.26669L10.7334 3.73335C10.8667 3.86669 10.8667 4.06669 10.7334 4.20002L5.40002 9.73335C5.33335 9.80002 5.26669 9.83335 5.16669 9.83335C5.06669 9.83335 5.00002 9.80002 4.93335 9.73335L2.33335 6.93335L2.26669 6.83335V6.83335Z" fill="url(#paint0_linear_83_4432)"/>
</g>
<defs>
<linearGradient id="paint0_linear_83_4432" x1="6.50002" y1="3.16669" x2="6.50002" y2="9.83335" gradientUnits="userSpaceOnUse">
<stop stop-color="#FFB45C"/>
<stop offset="1" stop-color="#FFA438"/>
</linearGradient>
<clipPath id="clip0_83_4432">
<rect x="2.16669" y="2.16669" width="8.66667" height="8.66667" fill="white"/>
</clipPath>
</defs>
</svg>
